<mxfile host="65bd71144e">
    <diagram id="fe0f95df-8578-7ff9-5e9f-db93b6560ab3" name="Strategy">
        <mxGraphModel grid="1" page="0" gridSize="10" guides="1" tooltips="1" connect="1" arrows="1" fold="1" pageScale="1" pageWidth="850" pageHeight="1100" background="none" math="0" shadow="0">
            <root>
                <mxCell id="0"/>
                <mxCell id="1" parent="0"/>
                <mxCell id="46a01054fbe08899-24" style="edgeStyle=orthogonalEdgeStyle;rounded=0;html=1;jettySize=auto;orthogonalLoop=1;endArrow=open;endFill=0;startArrow=diamondThin;startFill=0;startSize=12;endSize=6;" parent="1" source="46a01054fbe08899-1" target="2" edge="1">
                    <mxGeometry relative="1" as="geometry">
                        <mxPoint x="360" y="175" as="targetPoint"/>
                    </mxGeometry>
                </mxCell>
                <mxCell id="46a01054fbe08899-1" value="Context" style="swimlane;fontStyle=1;align=center;verticalAlign=top;childLayout=stackLayout;horizontal=1;startSize=26;horizontalStack=0;resizeParent=1;resizeParentMax=0;resizeLast=0;collapsible=1;marginBottom=0;swimlaneFillColor=default;" parent="1" vertex="1">
                    <mxGeometry x="120" y="149" width="160" height="52" as="geometry"/>
                </mxCell>
                <mxCell id="46a01054fbe08899-4" value="+ SomeOperation(): void" style="text;strokeColor=none;align=left;verticalAlign=top;spacingLeft=4;spacingRight=4;overflow=hidden;rotatable=0;points=[[0,0.5],[1,0.5]];portConstraint=eastwest;" parent="46a01054fbe08899-1" vertex="1">
                    <mxGeometry y="26" width="160" height="26" as="geometry"/>
                </mxCell>
                <mxCell id="46a01054fbe08899-23" style="edgeStyle=orthogonalEdgeStyle;rounded=0;html=1;jettySize=auto;orthogonalLoop=1;endArrow=block;endFill=0;endSize=12;exitX=0.5;exitY=0;exitDx=0;exitDy=0;" parent="1" source="46a01054fbe08899-10" edge="1">
                    <mxGeometry relative="1" as="geometry">
                        <mxPoint x="460" y="210" as="targetPoint"/>
                    </mxGeometry>
                </mxCell>
                <mxCell id="46a01054fbe08899-10" value="ConcreteStrategy1" style="swimlane;fontStyle=0;childLayout=stackLayout;horizontal=1;startSize=26;horizontalStack=0;resizeParent=1;resizeParentMax=0;resizeLast=0;collapsible=1;marginBottom=0;strokeColor=default;fillColor=default;swimlaneFillColor=default;" parent="1" vertex="1">
                    <mxGeometry x="300" y="340" width="140" height="52" as="geometry"/>
                </mxCell>
                <mxCell id="46a01054fbe08899-11" value="+ ExecuteAlgo(): void" style="text;strokeColor=none;align=left;verticalAlign=top;spacingLeft=4;spacingRight=4;overflow=hidden;rotatable=0;points=[[0,0.5],[1,0.5]];portConstraint=eastwest;" parent="46a01054fbe08899-10" vertex="1">
                    <mxGeometry y="26" width="140" height="26" as="geometry"/>
                </mxCell>
                <mxCell id="46a01054fbe08899-22" style="edgeStyle=orthogonalEdgeStyle;rounded=0;html=1;jettySize=auto;orthogonalLoop=1;endArrow=block;endFill=0;endSize=12;exitX=0.5;exitY=0;exitDx=0;exitDy=0;" parent="1" source="46a01054fbe08899-19" edge="1">
                    <mxGeometry relative="1" as="geometry">
                        <mxPoint x="460" y="210" as="targetPoint"/>
                    </mxGeometry>
                </mxCell>
                <mxCell id="46a01054fbe08899-19" value="ConcreteStrategy2" style="swimlane;fontStyle=0;childLayout=stackLayout;horizontal=1;startSize=26;horizontalStack=0;resizeParent=1;resizeParentMax=0;resizeLast=0;collapsible=1;marginBottom=0;swimlaneFillColor=default;" parent="1" vertex="1">
                    <mxGeometry x="480" y="340" width="140" height="52" as="geometry"/>
                </mxCell>
                <mxCell id="46a01054fbe08899-20" value="+ ExecuteAlgo(): void" style="text;strokeColor=none;align=left;verticalAlign=top;spacingLeft=4;spacingRight=4;overflow=hidden;rotatable=0;points=[[0,0.5],[1,0.5]];portConstraint=eastwest;" parent="46a01054fbe08899-19" vertex="1">
                    <mxGeometry y="26" width="140" height="26" as="geometry"/>
                </mxCell>
                <mxCell id="46a01054fbe08899-27" value=":Context" style="shape=umlLifeline;perimeter=lifelinePerimeter;whiteSpace=wrap;html=1;container=1;collapsible=0;recursiveResize=0;outlineConnect=0;" parent="1" vertex="1">
                    <mxGeometry x="200" y="440" width="100" height="400" as="geometry"/>
                </mxCell>
                <mxCell id="46a01054fbe08899-32" value="" style="html=1;points=[];perimeter=orthogonalPerimeter;" parent="46a01054fbe08899-27" vertex="1">
                    <mxGeometry x="45" y="80" width="10" height="90" as="geometry"/>
                </mxCell>
                <mxCell id="46a01054fbe08899-42" value="" style="html=1;points=[];perimeter=orthogonalPerimeter;" parent="46a01054fbe08899-27" vertex="1">
                    <mxGeometry x="45.5" y="260" width="10" height="90" as="geometry"/>
                </mxCell>
                <mxCell id="46a01054fbe08899-43" value="SomeOperation()" style="html=1;verticalAlign=bottom;endArrow=block;entryX=0;entryY=0;" parent="46a01054fbe08899-27" target="46a01054fbe08899-42" edge="1">
                    <mxGeometry relative="1" as="geometry">
                        <mxPoint x="-120" y="260" as="sourcePoint"/>
                    </mxGeometry>
                </mxCell>
                <mxCell id="46a01054fbe08899-44" value="return" style="html=1;verticalAlign=bottom;endArrow=open;dashed=1;endSize=8;exitX=0;exitY=0.95;" parent="46a01054fbe08899-27" source="46a01054fbe08899-42" edge="1">
                    <mxGeometry relative="1" as="geometry">
                        <mxPoint x="-120" y="346" as="targetPoint"/>
                    </mxGeometry>
                </mxCell>
                <mxCell id="46a01054fbe08899-28" value=":ConcreteStrategy1" style="shape=umlLifeline;perimeter=lifelinePerimeter;whiteSpace=wrap;html=1;container=1;collapsible=0;recursiveResize=0;outlineConnect=0;" parent="1" vertex="1">
                    <mxGeometry x="350" y="440" width="120" height="400" as="geometry"/>
                </mxCell>
                <mxCell id="46a01054fbe08899-36" value="" style="html=1;points=[];perimeter=orthogonalPerimeter;" parent="46a01054fbe08899-28" vertex="1">
                    <mxGeometry x="55" y="100" width="10" height="40" as="geometry"/>
                </mxCell>
                <mxCell id="46a01054fbe08899-29" value=":ConcreteStrategy2" style="shape=umlLifeline;perimeter=lifelinePerimeter;whiteSpace=wrap;html=1;container=1;collapsible=0;recursiveResize=0;outlineConnect=0;" parent="1" vertex="1">
                    <mxGeometry x="490" y="440" width="120" height="400" as="geometry"/>
                </mxCell>
                <mxCell id="46a01054fbe08899-45" value="" style="html=1;points=[];perimeter=orthogonalPerimeter;" parent="46a01054fbe08899-29" vertex="1">
                    <mxGeometry x="55.5" y="285" width="10" height="40" as="geometry"/>
                </mxCell>
                <mxCell id="46a01054fbe08899-30" value="" style="shape=umlLifeline;participant=umlActor;perimeter=lifelinePerimeter;whiteSpace=wrap;html=1;container=1;collapsible=0;recursiveResize=0;verticalAlign=top;spacingTop=36;labelBackgroundColor=#ffffff;outlineConnect=0;" parent="1" vertex="1">
                    <mxGeometry x="70" y="440" width="20" height="400" as="geometry"/>
                </mxCell>
                <mxCell id="46a01054fbe08899-33" value="SomeOperation()" style="html=1;verticalAlign=bottom;endArrow=block;entryX=0;entryY=0;" parent="1" source="46a01054fbe08899-30" target="46a01054fbe08899-32" edge="1">
                    <mxGeometry relative="1" as="geometry">
                        <mxPoint x="175" y="520" as="sourcePoint"/>
                    </mxGeometry>
                </mxCell>
                <mxCell id="46a01054fbe08899-34" value="return" style="html=1;verticalAlign=bottom;endArrow=open;dashed=1;endSize=8;exitX=0;exitY=0.95;" parent="1" source="46a01054fbe08899-32" target="46a01054fbe08899-30" edge="1">
                    <mxGeometry relative="1" as="geometry">
                        <mxPoint x="80" y="596" as="targetPoint"/>
                    </mxGeometry>
                </mxCell>
                <mxCell id="46a01054fbe08899-37" value="ExecuteAlgo()" style="html=1;verticalAlign=bottom;endArrow=block;entryX=0;entryY=0;" parent="1" source="46a01054fbe08899-32" target="46a01054fbe08899-36" edge="1">
                    <mxGeometry relative="1" as="geometry">
                        <mxPoint x="260" y="540" as="sourcePoint"/>
                    </mxGeometry>
                </mxCell>
                <mxCell id="46a01054fbe08899-38" value="return" style="html=1;verticalAlign=bottom;endArrow=open;dashed=1;endSize=8;exitX=0;exitY=0.95;" parent="1" source="46a01054fbe08899-36" target="46a01054fbe08899-32" edge="1">
                    <mxGeometry relative="1" as="geometry">
                        <mxPoint x="365" y="616" as="targetPoint"/>
                    </mxGeometry>
                </mxCell>
                <mxCell id="46a01054fbe08899-46" value="ExecuteAlgo()" style="html=1;verticalAlign=bottom;endArrow=block;entryX=0;entryY=0;" parent="1" source="46a01054fbe08899-42" target="46a01054fbe08899-45" edge="1">
                    <mxGeometry relative="1" as="geometry">
                        <mxPoint x="270.5" y="725" as="sourcePoint"/>
                    </mxGeometry>
                </mxCell>
                <mxCell id="46a01054fbe08899-47" value="return" style="html=1;verticalAlign=bottom;endArrow=open;dashed=1;endSize=8;exitX=0;exitY=0.95;" parent="1" source="46a01054fbe08899-45" target="46a01054fbe08899-42" edge="1">
                    <mxGeometry relative="1" as="geometry">
                        <mxPoint x="270.5" y="763" as="targetPoint"/>
                    </mxGeometry>
                </mxCell>
                <mxCell id="46a01054fbe08899-48" value="" style="shape=crossbar;whiteSpace=wrap;html=1;rounded=1;strokeColor=#6c8ebf;" parent="1" vertex="1">
                    <mxGeometry x="70" y="640" width="540" height="20" as="geometry"/>
                </mxCell>
                <mxCell id="46a01054fbe08899-49" value="OR&lt;br&gt;" style="text;html=1;resizable=0;points=[];autosize=1;align=center;verticalAlign=top;spacingTop=-4;strokeColor=#6c8ebf;fontColor=#000000;fillColor=#6C8EBF;" parent="1" vertex="1">
                    <mxGeometry x="330" y="630" width="30" height="20" as="geometry"/>
                </mxCell>
                <mxCell id="2" value="&lt;&lt;Interface&gt;&gt;&#10;IStrategy" style="swimlane;fontStyle=1;align=center;verticalAlign=top;childLayout=stackLayout;horizontal=1;startSize=41;horizontalStack=0;resizeParent=1;resizeParentMax=0;resizeLast=0;collapsible=1;marginBottom=0;swimlaneFillColor=default;" parent="1" vertex="1">
                    <mxGeometry x="360" y="141.5" width="200" height="67" as="geometry"/>
                </mxCell>
                <mxCell id="3" value="+ ExecuteAlgo(): void" style="text;strokeColor=none;align=left;verticalAlign=top;spacingLeft=4;spacingRight=4;overflow=hidden;rotatable=0;points=[[0,0.5],[1,0.5]];portConstraint=eastwest;" parent="2" vertex="1">
                    <mxGeometry y="41" width="200" height="26" as="geometry"/>
                </mxCell>
                <mxCell id="0rDmzbczbVZfvbLaIehz-3" value="600 px MAX width" style="rounded=0;whiteSpace=wrap;html=1;sketch=0;fontSize=12;align=center;fontStyle=1" vertex="1" parent="1">
                    <mxGeometry x="40" y="-40" width="600" height="40" as="geometry"/>
                </mxCell>
            </root>
        </mxGraphModel>
    </diagram>
    <diagram id="69f8f34a-8516-3da5-c032-b171a3a55cab" name="Strategy Sequence">
        <mxGraphModel dx="1786" dy="490" grid="1" gridSize="10" guides="1" tooltips="1" connect="1" arrows="1" fold="1" page="0" pageScale="1" pageWidth="850" pageHeight="1100" background="none" math="0" shadow="0">
            <root>
                <mxCell id="0"/>
                <mxCell id="1" parent="0"/>
                <mxCell id="2" value=":Program" style="shape=umlLifeline;perimeter=lifelinePerimeter;whiteSpace=wrap;html=1;container=1;collapsible=0;recursiveResize=0;outlineConnect=0;" parent="1" vertex="1">
                    <mxGeometry x="40" y="80" width="100" height="280" as="geometry"/>
                </mxCell>
                <mxCell id="9" value="" style="html=1;points=[];perimeter=orthogonalPerimeter;" parent="2" vertex="1">
                    <mxGeometry x="45" y="50" width="10" height="220" as="geometry"/>
                </mxCell>
                <mxCell id="3" value=":SortableCollection" style="shape=umlLifeline;perimeter=lifelinePerimeter;whiteSpace=wrap;html=1;container=1;collapsible=0;recursiveResize=0;outlineConnect=0;" parent="1" vertex="1">
                    <mxGeometry x="200" y="80" width="120" height="280" as="geometry"/>
                </mxCell>
                <mxCell id="12" value="" style="html=1;points=[];perimeter=orthogonalPerimeter;" parent="3" vertex="1">
                    <mxGeometry x="55" y="100" width="10" height="60" as="geometry"/>
                </mxCell>
                <mxCell id="15" value="" style="html=1;points=[];perimeter=orthogonalPerimeter;" parent="3" vertex="1">
                    <mxGeometry x="55" y="170" width="10" height="100" as="geometry"/>
                </mxCell>
                <mxCell id="R_KAV4m_lqOHIZeDf2zq-22" value="" style="html=1;points=[];perimeter=orthogonalPerimeter;strokeColor=default;fontColor=#000000;fillColor=default;" parent="3" vertex="1">
                    <mxGeometry x="60" y="130" width="10" height="20" as="geometry"/>
                </mxCell>
                <mxCell id="R_KAV4m_lqOHIZeDf2zq-23" value="_sortStrategy = strategy" style="edgeStyle=orthogonalEdgeStyle;html=1;align=left;spacingLeft=2;endArrow=block;rounded=0;entryX=1;entryY=0;fontColor=default;" parent="3" target="R_KAV4m_lqOHIZeDf2zq-22" edge="1">
                    <mxGeometry x="0.0044" relative="1" as="geometry">
                        <mxPoint x="65" y="110" as="sourcePoint"/>
                        <Array as="points">
                            <mxPoint x="95" y="110"/>
                        </Array>
                        <mxPoint as="offset"/>
                    </mxGeometry>
                </mxCell>
                <mxCell id="R_KAV4m_lqOHIZeDf2zq-28" value="" style="html=1;points=[];perimeter=orthogonalPerimeter;strokeColor=default;fontColor=default;fillColor=default;" parent="3" vertex="1">
                    <mxGeometry x="60" y="240" width="10" height="20" as="geometry"/>
                </mxCell>
                <mxCell id="R_KAV4m_lqOHIZeDf2zq-29" value="_items = sorted items" style="edgeStyle=orthogonalEdgeStyle;html=1;align=left;spacingLeft=2;endArrow=block;rounded=0;entryX=1;entryY=0;fontColor=default;" parent="3" target="R_KAV4m_lqOHIZeDf2zq-28" edge="1">
                    <mxGeometry x="0.0027" relative="1" as="geometry">
                        <mxPoint x="65" y="220" as="sourcePoint"/>
                        <Array as="points">
                            <mxPoint x="95" y="220"/>
                        </Array>
                        <mxPoint as="offset"/>
                    </mxGeometry>
                </mxCell>
                <mxCell id="4" value="strategy&lt;br&gt;:SortDescendingStrategy" style="shape=umlLifeline;perimeter=lifelinePerimeter;whiteSpace=wrap;html=1;container=1;collapsible=0;recursiveResize=0;outlineConnect=0;" parent="1" vertex="1">
                    <mxGeometry x="380" y="120" width="150" height="240" as="geometry"/>
                </mxCell>
                <mxCell id="18" value="" style="html=1;points=[];perimeter=orthogonalPerimeter;" parent="4" vertex="1">
                    <mxGeometry x="70" y="140" width="10" height="30" as="geometry"/>
                </mxCell>
                <mxCell id="7" value="new" style="html=1;verticalAlign=bottom;endArrow=block;exitX=0.917;exitY=0.045;exitDx=0;exitDy=0;exitPerimeter=0;" parent="1" source="9" edge="1">
                    <mxGeometry relative="1" as="geometry">
                        <mxPoint x="380" y="140" as="sourcePoint"/>
                        <mxPoint x="380" y="140" as="targetPoint"/>
                    </mxGeometry>
                </mxCell>
                <mxCell id="13" value="SetSortStrategy(strategy)" style="html=1;verticalAlign=bottom;endArrow=block;entryX=0;entryY=0;" parent="1" target="12" edge="1">
                    <mxGeometry relative="1" as="geometry">
                        <mxPoint x="95" y="180" as="sourcePoint"/>
                        <mxPoint as="offset"/>
                    </mxGeometry>
                </mxCell>
                <mxCell id="19" value="Sort(Items)" style="html=1;verticalAlign=bottom;endArrow=block;entryX=0;entryY=0;exitX=1.019;exitY=0.098;exitPerimeter=0;exitDx=0;exitDy=0;" parent="1" source="15" target="18" edge="1">
                    <mxGeometry relative="1" as="geometry">
                        <mxPoint x="270" y="220" as="sourcePoint"/>
                    </mxGeometry>
                </mxCell>
                <mxCell id="20" value="return sorted items" style="html=1;verticalAlign=bottom;endArrow=open;dashed=1;endSize=8;exitX=0;exitY=0.95;entryX=1.019;entryY=0.4;entryPerimeter=0;entryDx=0;entryDy=0;" parent="1" source="18" target="15" edge="1">
                    <mxGeometry x="0.0025" relative="1" as="geometry">
                        <mxPoint x="280" y="287" as="targetPoint"/>
                        <mxPoint as="offset"/>
                    </mxGeometry>
                </mxCell>
                <mxCell id="16" value="Sort()" style="html=1;verticalAlign=bottom;endArrow=block;entryX=0;entryY=0;exitX=0.964;exitY=0.545;exitDx=0;exitDy=0;exitPerimeter=0;" parent="1" source="9" target="15" edge="1">
                    <mxGeometry relative="1" as="geometry">
                        <mxPoint x="100" y="270" as="sourcePoint"/>
                    </mxGeometry>
                </mxCell>
                <mxCell id="R_KAV4m_lqOHIZeDf2zq-33" value="" style="endArrow=none;html=1;fontColor=default;" parent="1" edge="1">
                    <mxGeometry width="50" height="50" relative="1" as="geometry">
                        <mxPoint x="-40" as="sourcePoint"/>
                        <mxPoint x="680" as="targetPoint"/>
                    </mxGeometry>
                </mxCell>
            </root>
        </mxGraphModel>
    </diagram>
    <diagram id="a0d90a59-ad95-61b6-8cdf-88db7958e744" name="Abstract Factory">
        <mxGraphModel grid="1" page="0" gridSize="10" guides="1" tooltips="1" connect="1" arrows="1" fold="1" pageScale="1" pageWidth="850" pageHeight="1100" background="none" math="0" shadow="0">
            <root>
                <mxCell id="0"/>
                <mxCell id="1" parent="0"/>
                <mxCell id="2" value="&lt;p style=&quot;margin: 0px ; margin-top: 4px ; text-align: center&quot;&gt;&lt;i&gt;&amp;lt;&amp;lt;Interface&amp;gt;&amp;gt;&lt;/i&gt;&lt;br&gt;&lt;b&gt;IVehicleFactory&lt;/b&gt;&lt;/p&gt;&lt;hr size=&quot;1&quot;&gt;&lt;p style=&quot;margin: 0px ; margin-left: 4px&quot;&gt;&lt;span&gt;+ CreateCar(): ICar&lt;/span&gt;&lt;br&gt;&lt;/p&gt;&lt;p style=&quot;margin: 0px ; margin-left: 4px&quot;&gt;+ CreateBike(): IBike&lt;/p&gt;" style="verticalAlign=top;align=left;overflow=fill;fontSize=12;fontFamily=Helvetica;html=1;" parent="1" vertex="1">
                    <mxGeometry x="-40" y="200" width="180" height="80" as="geometry"/>
                </mxCell>
                <mxCell id="4" value="«interface»&lt;br&gt;&lt;b&gt;ICar&lt;/b&gt;" style="html=1;" parent="1" vertex="1">
                    <mxGeometry x="350" y="200" width="120" height="50" as="geometry"/>
                </mxCell>
                <mxCell id="5" value="«interface»&lt;br&gt;&lt;b&gt;IBike&lt;/b&gt;" style="html=1;" parent="1" vertex="1">
                    <mxGeometry x="570" y="200" width="120" height="50" as="geometry"/>
                </mxCell>
                <mxCell id="10" style="edgeStyle=elbowEdgeStyle;rounded=0;elbow=vertical;html=1;jettySize=auto;orthogonalLoop=1;endArrow=block;endFill=0;endSize=12;" parent="1" source="6" target="2" edge="1">
                    <mxGeometry relative="1" as="geometry"/>
                </mxCell>
                <mxCell id="6" value="LowEndVehicleFactory" style="swimlane;fontStyle=0;childLayout=stackLayout;horizontal=1;startSize=26;horizontalStack=0;resizeParent=1;resizeParentMax=0;resizeLast=0;collapsible=1;marginBottom=0;swimlaneFillColor=default;" parent="1" vertex="1">
                    <mxGeometry x="190" y="445" width="190" height="78" as="geometry"/>
                </mxCell>
                <mxCell id="7" value="+ CreateCar(): ICar" style="text;strokeColor=none;align=left;verticalAlign=top;spacingLeft=4;spacingRight=4;overflow=hidden;rotatable=0;points=[[0,0.5],[1,0.5]];portConstraint=eastwest;" parent="6" vertex="1">
                    <mxGeometry y="26" width="190" height="26" as="geometry"/>
                </mxCell>
                <mxCell id="8" value="+ CreateBike(): IBike" style="text;strokeColor=none;align=left;verticalAlign=top;spacingLeft=4;spacingRight=4;overflow=hidden;rotatable=0;points=[[0,0.5],[1,0.5]];portConstraint=eastwest;" parent="6" vertex="1">
                    <mxGeometry y="52" width="190" height="26" as="geometry"/>
                </mxCell>
                <mxCell id="17" style="edgeStyle=orthogonalEdgeStyle;rounded=0;elbow=vertical;html=1;endArrow=block;endFill=0;endSize=12;jettySize=auto;orthogonalLoop=1;entryX=0.5;entryY=1;exitX=0.5;exitY=0;" parent="1" source="16" target="4" edge="1">
                    <mxGeometry relative="1" as="geometry"/>
                </mxCell>
                <mxCell id="16" value="LowEndCar" style="html=1;" parent="1" vertex="1">
                    <mxGeometry x="360" y="340" width="100" height="50" as="geometry"/>
                </mxCell>
                <mxCell id="19" style="edgeStyle=orthogonalEdgeStyle;rounded=0;elbow=vertical;html=1;endArrow=block;endFill=0;endSize=12;jettySize=auto;orthogonalLoop=1;" parent="1" source="18" target="5" edge="1">
                    <mxGeometry relative="1" as="geometry"/>
                </mxCell>
                <mxCell id="18" value="LowEndBike" style="html=1;" parent="1" vertex="1">
                    <mxGeometry x="580" y="340" width="100" height="50" as="geometry"/>
                </mxCell>
                <mxCell id="20" style="edgeStyle=orthogonalEdgeStyle;rounded=0;elbow=vertical;html=1;endArrow=open;endFill=0;endSize=12;jettySize=auto;orthogonalLoop=1;dashed=1;exitX=1;exitY=0.5;entryX=0.5;entryY=1;strokeWidth=1;" parent="1" source="6" target="16" edge="1">
                    <mxGeometry relative="1" as="geometry">
                        <Array as="points">
                            <mxPoint x="410" y="484"/>
                        </Array>
                    </mxGeometry>
                </mxCell>
                <mxCell id="22" value="&amp;lt;&amp;lt;Creates&amp;gt;&amp;gt;" style="text;html=1;resizable=0;points=[];align=center;verticalAlign=middle;labelBackgroundColor=default;fontColor=default;" parent="20" vertex="1" connectable="0">
                    <mxGeometry y="-19" relative="1" as="geometry">
                        <mxPoint x="-19" y="-22" as="offset"/>
                    </mxGeometry>
                </mxCell>
                <mxCell id="21" style="edgeStyle=orthogonalEdgeStyle;rounded=0;elbow=vertical;html=1;endArrow=open;endFill=0;endSize=12;jettySize=auto;orthogonalLoop=1;dashed=1;exitX=1;exitY=0.75;jumpStyle=arc;jumpSize=12;" parent="1" source="6" target="18" edge="1">
                    <mxGeometry relative="1" as="geometry"/>
                </mxCell>
                <mxCell id="23" value="&amp;lt;&amp;lt;Creates&amp;gt;&amp;gt;" style="text;html=1;resizable=0;points=[];align=center;verticalAlign=middle;labelBackgroundColor=default;fontColor=default;" parent="21" vertex="1" connectable="0">
                    <mxGeometry x="-0.2428" y="-1" relative="1" as="geometry">
                        <mxPoint x="112" y="-74" as="offset"/>
                    </mxGeometry>
                </mxCell>
                <mxCell id="29" style="edgeStyle=elbowEdgeStyle;rounded=0;elbow=vertical;html=1;endArrow=block;endFill=0;endSize=12;jettySize=auto;orthogonalLoop=1;" parent="1" source="24" target="2" edge="1">
                    <mxGeometry relative="1" as="geometry">
                        <mxPoint x="350" y="385" as="targetPoint"/>
                    </mxGeometry>
                </mxCell>
                <mxCell id="24" value="HighEndVehicleFactory" style="swimlane;fontStyle=0;childLayout=stackLayout;horizontal=1;startSize=26;horizontalStack=0;resizeParent=1;resizeParentMax=0;resizeLast=0;collapsible=1;marginBottom=0;swimlaneFillColor=default;" parent="1" vertex="1">
                    <mxGeometry x="-40" y="445" width="180" height="78" as="geometry"/>
                </mxCell>
                <mxCell id="25" value="+ CreateCar(): ICar" style="text;strokeColor=none;align=left;verticalAlign=top;spacingLeft=4;spacingRight=4;overflow=hidden;rotatable=0;points=[[0,0.5],[1,0.5]];portConstraint=eastwest;" parent="24" vertex="1">
                    <mxGeometry y="26" width="180" height="26" as="geometry"/>
                </mxCell>
                <mxCell id="26" value="+ CreateBike(): IBike" style="text;strokeColor=none;align=left;verticalAlign=top;spacingLeft=4;spacingRight=4;overflow=hidden;rotatable=0;points=[[0,0.5],[1,0.5]];portConstraint=eastwest;" parent="24" vertex="1">
                    <mxGeometry y="52" width="180" height="26" as="geometry"/>
                </mxCell>
                <mxCell id="35" style="edgeStyle=orthogonalEdgeStyle;rounded=0;html=1;endArrow=block;endFill=0;endSize=12;jettySize=auto;orthogonalLoop=1;exitX=0.5;exitY=0;" parent="1" source="27" target="4" edge="1">
                    <mxGeometry relative="1" as="geometry"/>
                </mxCell>
                <mxCell id="27" value="HighEndCar" style="html=1;" parent="1" vertex="1">
                    <mxGeometry x="470" y="340" width="100" height="50" as="geometry"/>
                </mxCell>
                <mxCell id="36" style="edgeStyle=orthogonalEdgeStyle;rounded=0;html=1;endArrow=block;endFill=0;endSize=12;jettySize=auto;orthogonalLoop=1;exitX=0.5;exitY=0;" parent="1" source="28" target="5" edge="1">
                    <mxGeometry relative="1" as="geometry"/>
                </mxCell>
                <mxCell id="28" value="HighEndBike" style="html=1;" parent="1" vertex="1">
                    <mxGeometry x="690" y="340" width="100" height="50" as="geometry"/>
                </mxCell>
                <mxCell id="30" style="edgeStyle=orthogonalEdgeStyle;rounded=0;html=1;endArrow=open;endFill=0;endSize=12;jettySize=auto;orthogonalLoop=1;dashed=1;exitX=1;exitY=0.5;entryX=0.5;entryY=1;jumpStyle=arc;jumpSize=12;entryDx=0;entryDy=0;" parent="1" target="28" edge="1">
                    <mxGeometry relative="1" as="geometry">
                        <mxPoint x="144.97" y="509.9999999999998" as="sourcePoint"/>
                        <mxPoint x="799.97" y="390" as="targetPoint"/>
                        <Array as="points">
                            <mxPoint x="155" y="510"/>
                            <mxPoint x="155" y="555"/>
                            <mxPoint x="740" y="555"/>
                        </Array>
                    </mxGeometry>
                </mxCell>
                <mxCell id="31" value="&amp;lt;&amp;lt;Creates&amp;gt;&amp;gt;" style="text;html=1;resizable=0;points=[];align=center;verticalAlign=middle;labelBackgroundColor=default;fontColor=default;" parent="30" vertex="1" connectable="0">
                    <mxGeometry y="-19" relative="1" as="geometry">
                        <mxPoint x="237" y="-144" as="offset"/>
                    </mxGeometry>
                </mxCell>
                <mxCell id="32" style="edgeStyle=orthogonalEdgeStyle;rounded=0;html=1;endArrow=open;endFill=0;endSize=12;jettySize=auto;orthogonalLoop=1;dashed=1;exitX=1;exitY=0.5;jumpStyle=arc;jumpSize=12;entryX=0.5;entryY=1;" parent="1" source="25" target="27" edge="1">
                    <mxGeometry relative="1" as="geometry">
                        <mxPoint x="130" y="525" as="sourcePoint"/>
                        <mxPoint x="260" y="525" as="targetPoint"/>
                        <Array as="points">
                            <mxPoint x="170" y="484"/>
                            <mxPoint x="170" y="535"/>
                            <mxPoint x="520" y="535"/>
                        </Array>
                    </mxGeometry>
                </mxCell>
                <mxCell id="33" value="&amp;lt;&amp;lt;Creates&amp;gt;&amp;gt;" style="text;html=1;resizable=0;points=[];align=center;verticalAlign=middle;labelBackgroundColor=default;fontColor=default;" parent="32" vertex="1" connectable="0">
                    <mxGeometry y="-19" relative="1" as="geometry">
                        <mxPoint x="143" y="-124" as="offset"/>
                    </mxGeometry>
                </mxCell>
                <mxCell id="h-QAeIGFi4k2T-Zk--SD-36" value="" style="endArrow=none;html=1;fontColor=default;" edge="1" parent="1">
                    <mxGeometry width="50" height="50" relative="1" as="geometry">
                        <mxPoint x="-80" as="sourcePoint"/>
                        <mxPoint x="990" as="targetPoint"/>
                    </mxGeometry>
                </mxCell>
                <mxCell id="rOh8ooC0etKCDtbzVtDC-36" value="600 px MAX width" style="rounded=0;whiteSpace=wrap;html=1;sketch=0;fontSize=12;align=center;fontStyle=1" vertex="1" parent="1">
                    <mxGeometry x="-40" y="-40" width="600" height="40" as="geometry"/>
                </mxCell>
                <mxCell id="rOh8ooC0etKCDtbzVtDC-37" value="600 px MAX width" style="rounded=0;whiteSpace=wrap;html=1;sketch=0;fontSize=12;align=center;fontStyle=1" vertex="1" parent="1">
                    <mxGeometry x="560" y="-40" width="600" height="40" as="geometry"/>
                </mxCell>
            </root>
        </mxGraphModel>
    </diagram>
    <diagram id="024c3a24-c5cd-4413-4fda-a2565cb1df91" name="Abstract Factory Sequence">
        <mxGraphModel grid="1" page="1" gridSize="10" guides="1" tooltips="1" connect="1" arrows="1" fold="1" pageScale="1" pageWidth="850" pageHeight="1100" background="none" math="0" shadow="0">
            <root>
                <mxCell id="0"/>
                <mxCell id="1" parent="0"/>
                <mxCell id="2" value=":Program" style="shape=umlLifeline;perimeter=lifelinePerimeter;whiteSpace=wrap;html=1;container=1;collapsible=0;recursiveResize=0;outlineConnect=0;" parent="1" vertex="1">
                    <mxGeometry x="80" y="80" width="100" height="300" as="geometry"/>
                </mxCell>
                <mxCell id="3" value="concreteFactory&lt;br&gt;:HighGradeVehicleFactory&lt;br&gt;" style="shape=umlLifeline;perimeter=lifelinePerimeter;whiteSpace=wrap;html=1;container=1;collapsible=0;recursiveResize=0;outlineConnect=0;" parent="1" vertex="1">
                    <mxGeometry x="400" y="80" width="160" height="300" as="geometry"/>
                </mxCell>
                <mxCell id="4" value="abstractFactory&lt;br&gt;:IVehicleFactory" style="shape=umlLifeline;perimeter=lifelinePerimeter;whiteSpace=wrap;html=1;container=1;collapsible=0;recursiveResize=0;outlineConnect=0;" parent="1" vertex="1">
                    <mxGeometry x="240" y="80" width="120" height="300" as="geometry"/>
                </mxCell>
            </root>
        </mxGraphModel>
    </diagram>
    <diagram id="e725a75f-7668-f31d-9377-71e1dfa57c7c" name="Singleton">
        <mxGraphModel dx="1170" dy="784" grid="1" gridSize="10" guides="1" tooltips="1" connect="1" arrows="1" fold="1" page="1" pageScale="1" pageWidth="850" pageHeight="1100" background="none" math="0" shadow="0">
            <root>
                <mxCell id="0"/>
                <mxCell id="1" parent="0"/>
                <mxCell id="2" value="Singleton" style="swimlane;fontStyle=1;align=center;verticalAlign=top;childLayout=stackLayout;horizontal=1;startSize=26;horizontalStack=0;resizeParent=1;resizeParentMax=0;resizeLast=0;collapsible=1;marginBottom=0;swimlaneFillColor=default;" parent="1" vertex="1">
                    <mxGeometry x="370" y="147" width="160" height="112" as="geometry"/>
                </mxCell>
                <mxCell id="3" value="- instance: Singleton" style="text;strokeColor=none;fillColor=none;align=left;verticalAlign=top;spacingLeft=4;spacingRight=4;overflow=hidden;rotatable=0;points=[[0,0.5],[1,0.5]];portConstraint=eastwest;fontStyle=4" parent="2" vertex="1">
                    <mxGeometry y="26" width="160" height="26" as="geometry"/>
                </mxCell>
                <mxCell id="4" value="" style="line;strokeWidth=1;fillColor=none;align=left;verticalAlign=middle;spacingTop=-1;spacingLeft=3;spacingRight=3;rotatable=0;labelPosition=right;points=[];portConstraint=eastwest;" parent="2" vertex="1">
                    <mxGeometry y="52" width="160" height="8" as="geometry"/>
                </mxCell>
                <mxCell id="5" value="+ Create(): Singleton" style="text;strokeColor=none;fillColor=none;align=left;verticalAlign=top;spacingLeft=4;spacingRight=4;overflow=hidden;rotatable=0;points=[[0,0.5],[1,0.5]];portConstraint=eastwest;fontStyle=4" parent="2" vertex="1">
                    <mxGeometry y="60" width="160" height="26" as="geometry"/>
                </mxCell>
                <mxCell id="6" value="- Singleton()" style="text;strokeColor=none;fillColor=none;align=left;verticalAlign=top;spacingLeft=4;spacingRight=4;overflow=hidden;rotatable=0;points=[[0,0.5],[1,0.5]];portConstraint=eastwest;" parent="2" vertex="1">
                    <mxGeometry y="86" width="160" height="26" as="geometry"/>
                </mxCell>
            </root>
        </mxGraphModel>
    </diagram>
</mxfile>